<svg xmlns="http://www.w3.org/2000/svg" viewBox="0 0 252.32 51.28"><defs><style>.cls-1{fill:#39bb9d;}.cls-2{fill:#9ad3b7;}.cls-3{fill:#808284;}.cls-4{fill:#bcbec0;}</style></defs><g id="레이어_2" data-name="레이어 2"><g id="Layer_1" data-name="Layer 1"><path class="cls-1" d="M51,25.39H36.86v.1A11.38,11.38,0,1,1,25.48,14.1h.1V0h-.1A25.49,25.49,0,1,0,51,25.49Z"/><path class="cls-1" d="M32.93,1.12,31.27.67,27.61,14.31a10.72,10.72,0,0,1,1.66.45Z"/><path class="cls-1" d="M40.81,5.16l-1.41-1L31.31,15.72a9.85,9.85,0,0,1,1.41,1Z"/><path class="cls-1" d="M46.83,11.65l-1-1.41L34.32,18.3a12.77,12.77,0,0,1,1,1.42Z"/><path class="cls-1" d="M50.27,19.82l-.45-1.67L36.25,21.78a13.21,13.21,0,0,1,.44,1.67Z"/><path class="cls-2" d="M25.48,14.1h.1V0h-.1A25.48,25.48,0,0,0,0,25.49H14.1A11.39,11.39,0,0,1,25.48,14.1Z"/><path class="cls-2" d="M51,25.39H36.86v.1A11.37,11.37,0,0,1,25.48,36.86V51A25.48,25.48,0,0,0,51,25.49Z"/><path class="cls-2" d="M80.92,8.2a19.71,19.71,0,0,1-2.5,5,29.9,29.9,0,0,1-3.91,4.6,38,38,0,0,1-4.93,4A37.41,37.41,0,0,1,64,24.91l-1-1.28A30.12,30.12,0,0,0,67.1,21a36.39,36.39,0,0,0,3.76-3.35,28.81,28.81,0,0,0,3.08-3.74A19.15,19.15,0,0,0,76,10.08c-1,0-2,0-2.87.07s-1.59.09-2.06.13l-.92.1-1.28.13-1.41.17q-.72.11-1.29.24L64.11,7.86A7.85,7.85,0,0,0,65.2,8l1.61.1,1.7.09,1.41,0c.89,0,1.82,0,2.78-.07S74.58,8,75.45,8s1.67-.15,2.38-.25a12,12,0,0,0,1.68-.32ZM88.06,32c.27,0,.51-.07.71-.08l.64,0-.74,2.85c-.76-.07-1.67-.11-2.72-.13s-2.15,0-3.3,0-2.31,0-3.48,0-2.22.06-3.18.1c0,.14-.09.3-.14.49s-.09.41-.13.65l-2.79.47c0-.22-.05-.49-.08-.8s-.07-.64-.1-1-.07-.67-.1-1-.06-.65-.08-.94l-.41-6.14a6,6,0,0,0-.11-.89,1.11,1.11,0,0,0-.34-.57,2.63,2.63,0,0,0-.72-.4,12.27,12.27,0,0,0-1.28-.39l.78-1.51c1.47.21,3,.34,4.56.41s3.13.09,4.71.06,3.14-.07,4.68-.16,3-.21,4.53-.34q-.1.84-.24,2c-.09.79-.17,1.61-.25,2.47s-.15,1.72-.23,2.58S88.11,31.29,88.06,32Zm-3.28-6.84-2.18-.05c-.79,0-1.57,0-2.35,0L78,25.19l-2,.08.14,6.65v.57l4.24-.12,4.35-.15ZM81.72,3.6l1.82.27c.69.11,1.39.24,2.11.37s1.4.26,2.06.37l1.66.27a4.73,4.73,0,0,0-.17.8c0,.34-.09.67-.13,1s-.08.63-.1.89,0,.4,0,.42v8.18c0,.41,0,.88-.07,1.43l-.15,1.64c-.06.55-.12,1.07-.19,1.55a9.07,9.07,0,0,1-.2,1.12l-2.92.44c0-.23-.07-.52-.1-.89s0-.77-.08-1.19-.06-.85-.07-1.26,0-.78,0-1.09V7.86a1.84,1.84,0,0,0-1-1.59A12.19,12.19,0,0,0,81,5.08Z"/><path class="cls-2" d="M110.89,28.9c.81,0,1.53-.08,2.18-.1l1.61-.07c.74,0,1.51-.07,2.32-.14s1.6-.14,2.4-.23l2.29-.25,2-.22L123.24,31l-1.6-.07-2-.05-2.25,0-2.26,0-2.23,0c-.89,0-1.84,0-2.85.07l-3.14.1-3.05.1c-1,0-1.84.07-2.62.12l-1.81.1q-1.28.06-2.82.21c-1,.1-1.95.22-2.78.36l-1.24-3.46c.49.07,1,.13,1.59.19l1.76.15,1.8.11,1.66.09c.82,0,1.93.06,3.32.05s2.85,0,4.39-.09V22.22c-1.07.05-2,.08-2.87.1s-1.45.06-1.86.1l-1.1.1-1.48.14c-.51,0-1,.09-1.49.15s-.87.1-1.16.15L95.8,19.71l1.26.23c.52.09,1.07.17,1.66.23s1.14.13,1.67.17,1,.07,1.28.07h.64l-.41-6a4,4,0,0,0-.13-.81,1.76,1.76,0,0,0-.34-.65,1.64,1.64,0,0,0-.67-.47,3.87,3.87,0,0,0-1.14-.25l.24-1.44,1.22,0,1.61.08c.57,0,1.13.08,1.68.14l1.42.15a5,5,0,0,0-.15.72,8.14,8.14,0,0,0,0,.87c0,.3,0,.61,0,.91s0,.56.06.79l.27,5.77c.78-.05,1.6-.08,2.43-.11s1.73-.06,2.67-.13l.47-6.17a1.76,1.76,0,0,0-.33-1.44,4.06,4.06,0,0,0-1.92-.84l.54-1.38c.63.07,1.48.15,2.57.24a28.4,28.4,0,0,1,3.43.5c0,.2-.1.45-.16.76s-.14.61-.2.93-.13.62-.17.89a3.5,3.5,0,0,0-.07.54l-.54,5.64c1.12-.07,2.18-.15,3.19-.24s1.9-.19,2.68-.3l-.7,3c-1,0-2.38-.06-4-.06s-3.25,0-5,.07ZM119,9.78c-.58,0-1.32,0-2.23,0s-1.87,0-2.91,0-2.11,0-3.21,0l-3.12.08-2.63.1-1.76.08-1.14.11-1.48.15-1.49.16-1.19.16L96.6,7.36c.32.07.73.14,1.24.2l1.63.19c.57,0,1.12.1,1.66.13s1,0,1.31,0c.78,0,1.88,0,3.29-.07s2.93-.11,4.58-.2,3.3-.2,5-.33,3.17-.29,4.49-.47Z"/><path class="cls-1" d="M138.45,20c-.31,0-.62,0-.92,0h-.93c-1,0-2,0-3,.06s-2,.1-2.92.17q-.06.27-.12.51a2.06,2.06,0,0,1-.15.46c-.44.05-.89.12-1.34.21s-.89.15-1.34.2a7.47,7.47,0,0,1-.12-.77c0-.32-.07-.64-.12-1s-.07-.67-.1-1,0-.67,0-1v-7a3.25,3.25,0,0,0-.1-.87,1.43,1.43,0,0,0-.39-.64,2.68,2.68,0,0,0-.82-.47,14,14,0,0,0-1.41-.4c.11-.22.23-.45.36-.67l.35-.67c.33,0,.76.09,1.27.15s1.06.12,1.63.2l1.69.25,1.48.24c-.05.2-.09.46-.14.77s-.08.62-.11.91-.06.54-.09.77,0,.37,0,.43v.74c1.1,0,2.26-.1,3.49-.18s2.45-.18,3.65-.29V9.58a2.52,2.52,0,0,0-.11-.84,1.42,1.42,0,0,0-.44-.61,2.88,2.88,0,0,0-.9-.47c-.4-.13-.9-.29-1.53-.47a5.34,5.34,0,0,0,.28-.72c.08-.23.18-.47.29-.72l1.58.19,1.76.23,1.74.25q.85.13,1.5.27a5.47,5.47,0,0,0-.12.77c0,.32-.08.62-.12.91s-.08.55-.1.77,0,.37,0,.44V16a14.57,14.57,0,0,1-.24,2.92c-.16.76-.29,1.41-.4,2a12.39,12.39,0,0,0-1.38.2c-.45.09-.89.15-1.34.2,0-.14-.05-.31-.08-.52S138.49,20.29,138.45,20Zm-2.38,7.55.17-3.19a6.07,6.07,0,0,0-1.08,0l-1.64.16c-.6.07-1.82.27-3.66.61l-1.41-3a18.82,18.82,0,0,0,2.5.36c.82.05,1.42.08,1.8.08a34.83,34.83,0,0,0,3.6-.13c1.29-.11,2.75-.26,4.38-.44v.2c.31.05.72.1,1.21.15s1,.1,1.57.12l1.06,0q.69,0,1.56-.12c.58-.06,1.19-.12,1.83-.2l1.86-.25c-.07.38-.13.81-.18,1.3a11.09,11.09,0,0,0-.09,1.31v5.81c0,.4,0,.85-.05,1.34s-.08,1-.15,1.49-.13,1-.2,1.39-.13.77-.2,1l-2.82.54c0-.25-.09-.54-.13-.89s-.09-.7-.12-1.07-.07-.74-.1-1.11-.05-.7-.05-1V24.37l-1,.05a5.84,5.84,0,0,0-.83.08c-.38.05-.82.12-1.34.22s-1.13.25-1.84.45l-.41-1-.1.49c0,.23-.1.5-.16.8s-.14.61-.2.91-.13.57-.17.79c-.12,0-.07,0,.11,0l.66-.1-.5,2.58-1.88-.05-1.55,0c-.47,0-.91,0-1.32,0a9.89,9.89,0,0,0-1.22.13c0,.11,0,.27,0,.47s0,.39,0,.57v1.78c0,.38,0,.6.12.65a.37.37,0,0,0,.22.09,25.93,25.93,0,0,0,3.67-.69c1.38-.35,2.89-.79,4.55-1.32v1.57a37.68,37.68,0,0,1-5,1.86A40,40,0,0,1,133,35.74a2.43,2.43,0,0,1-2.12-.34,2,2,0,0,1-.7-1.64V31.28a2.58,2.58,0,0,0-.41-1.63,3.3,3.3,0,0,0-1.57-.85l.47-1.38a35.19,35.19,0,0,0,4,.29Q134.56,27.73,136.07,27.59Zm2.14-14.09-3.52,0-3.62.1v3.71c0,.28,0,.54,0,.79,1.14,0,2.33-.06,3.59-.12s2.44-.13,3.58-.22Zm11.48,2.08c0,.4,0,.88,0,1.42s-.05,1.1-.1,1.65-.09,1.06-.15,1.54a8.13,8.13,0,0,1-.18,1.13c-.52.06-1,.14-1.5.21l-1.49.22c0-.22-.08-.52-.11-.9s-.07-.78-.09-1.19,0-.83-.07-1.23,0-.75,0-1V7.9A1.9,1.9,0,0,0,145,6.29a10.38,10.38,0,0,0-3.17-1.21c.11-.25.21-.49.3-.74l.27-.74,1.93.27c.72.11,1.44.24,2.16.37l2,.37,1.56.27a7,7,0,0,0-.13.8c-.05.34-.09.67-.14,1s-.08.63-.1.89,0,.4,0,.42v4.26l1.61-.15c.58-.06,1.16-.12,1.74-.2l1.71-.24,1.51-.22c-.09.52-.15,1-.2,1.53s-.11,1-.2,1.53c-.34,0-.76,0-1.26,0s-1,0-1.61,0h-3.3Z"/><path class="cls-1" d="M186.92,23.4c-.44,0-1,0-1.59-.07l-2,0-2.21-.05c-.76,0-1.51,0-2.25,0s-1.38,0-2.33,0l-3.08.05-3.43.08-3.33.1-2.84.12-1.89.1c-.41,0-.85.06-1.33.1l-1.46.14c-.49,0-1,.09-1.46.15l-1.29.15-1.34-3.36c1,.11,2.15.22,3.42.32s2.42.19,3.42.25h2.12l2.86,0,3.26-.07,3.25-.08,2.87-.09,2.11-.06c.74,0,1.51-.07,2.32-.14s1.6-.14,2.4-.21l2.29-.24c.74-.08,1.42-.16,2.05-.25Zm-4,11.77c-1.37-.07-2.85-.12-4.46-.15s-3.21-.05-4.78,0-3.08,0-4.52.06-2.64.09-3.62.15a2.23,2.23,0,0,1-1.93-.52,2,2,0,0,1-.55-1.39V29.84a6.84,6.84,0,0,0-.07-1.13,1.2,1.2,0,0,0-.35-.7,2.37,2.37,0,0,0-.89-.49c-.4-.13-.95-.29-1.64-.47l.63-1.47,1.36.16,1.78.24,1.8.25,1.37.18c0,.14,0,.32-.07.54s0,.47-.06.72,0,.52-.05.77,0,.49,0,.69v3.09c0,.38,0,.6.1.67a1.13,1.13,0,0,0,.6.13h2.07l2.68-.07,3-.12c1,0,2-.11,3-.18l2.8-.24c.88-.08,1.63-.17,2.26-.28Zm-9.36-29a10.09,10.09,0,0,1,2.65.79,7.56,7.56,0,0,1,2.06,1.34,5.93,5.93,0,0,1,1.33,1.77,4.88,4.88,0,0,1,.47,2.1,5,5,0,0,1-.64,2.45,6.3,6.3,0,0,1-1.78,2,8.7,8.7,0,0,1-2.7,1.31,11.73,11.73,0,0,1-3.37.47,11.24,11.24,0,0,1-3.32-.47,8.36,8.36,0,0,1-2.62-1.31,6.25,6.25,0,0,1-1.73-2,5.1,5.1,0,0,1-.62-2.45,4.73,4.73,0,0,1,.51-2.15,5.92,5.92,0,0,1,1.42-1.81,8.44,8.44,0,0,1,2.18-1.34,9.63,9.63,0,0,1,2.77-.7,1.18,1.18,0,0,0-.35-.74,3.07,3.07,0,0,0-1.06-.54l.64-1.17,1,.18,1.26.25,1.29.26,1.07.18c0,.18-.11.41-.2.69S173.61,5.87,173.54,6.19Zm2.58,5.87a3.62,3.62,0,0,0-.37-1.61,4.35,4.35,0,0,0-1-1.34,4.5,4.5,0,0,0-1.41-.91,4.42,4.42,0,0,0-1.68-.34A4.32,4.32,0,0,0,170,8.2a4.52,4.52,0,0,0-1.39.91,4.32,4.32,0,0,0-1,1.34,3.89,3.89,0,0,0-.35,1.61,4,4,0,0,0,1.29,3,4.39,4.39,0,0,0,1.39.83,4.67,4.67,0,0,0,1.71.31,4.6,4.6,0,0,0,1.71-.31,4.49,4.49,0,0,0,1.41-.83,3.94,3.94,0,0,0,1-1.31A4.18,4.18,0,0,0,176.12,12.06Z"/><path class="cls-3" d="M198.75,9.07a8.77,8.77,0,0,1,2.55.82,7.51,7.51,0,0,1,1.94,1.41,5.88,5.88,0,0,1,1.24,1.86,5.66,5.66,0,0,1,.44,2.18,5.51,5.51,0,0,1-.6,2.55,6.48,6.48,0,0,1-1.68,2.05,8.43,8.43,0,0,1-2.55,1.38,10.62,10.62,0,0,1-6.44,0,8.09,8.09,0,0,1-2.53-1.38,6.13,6.13,0,0,1-1.65-2.05,5.62,5.62,0,0,1-.58-2.55,5.54,5.54,0,0,1,.47-2.28,6.27,6.27,0,0,1,1.34-1.93,7,7,0,0,1,2.09-1.4A9.27,9.27,0,0,1,195.53,9a1,1,0,0,0-.32-.72,3,3,0,0,0-1-.48l.7-1.21.91.2,1.19.27,1.22.27,1,.23-.22.61A6.1,6.1,0,0,0,198.75,9.07ZM201,15.18a4.27,4.27,0,0,0-.34-1.73,4.33,4.33,0,0,0-.92-1.38,4.61,4.61,0,0,0-1.32-.92,3.79,3.79,0,0,0-1.55-.33,3.9,3.9,0,0,0-1.56.33,4,4,0,0,0-1.3.92,4.61,4.61,0,0,0-.89,1.38,4.27,4.27,0,0,0-.34,1.73,4.56,4.56,0,0,0,.34,1.81,4.22,4.22,0,0,0,.89,1.37,3.81,3.81,0,0,0,1.3.89,3.89,3.89,0,0,0,1.56.32,3.82,3.82,0,0,0,1.56-.32,4,4,0,0,0,1.33-.89,4.08,4.08,0,0,0,.9-1.37A4.56,4.56,0,0,0,201,15.18ZM214.88,34.9c-1.36,0-2.76,0-4.19,0s-2.83,0-4.19,0-2.67.06-3.91.1-2.35.1-3.34.17a2.31,2.31,0,0,1-1.91-.52,1.93,1.93,0,0,1-.6-1.38V29.12a8,8,0,0,0-.07-1.12,1.36,1.36,0,0,0-.35-.71,2.32,2.32,0,0,0-.88-.5q-.58-.21-1.62-.48l.67-1.51c.31.05.75.11,1.31.17l1.76.24,1.79.25c.58.08,1,.15,1.38.22,0,.13,0,.31-.07.53s0,.47-.07.72l-.06.76a5.56,5.56,0,0,0,0,.67v3.86c0,.38,0,.6.14.67a1.54,1.54,0,0,0,.7.13c.83,0,1.85,0,3.07-.06s2.48-.16,3.79-.26,2.6-.21,3.88-.35,2.38-.27,3.32-.4Zm-2-13.28c0,.51,0,1.07,0,1.66s-.05,1.19-.1,1.79-.09,1.18-.15,1.71-.12,1-.18,1.38l-3,.47a10,10,0,0,1-.12-1.14c0-.49-.06-1-.08-1.6s-.05-1.14-.07-1.71,0-1.05,0-1.46V7.86a1.86,1.86,0,0,0-.93-1.59A10.91,10.91,0,0,0,205,5.08l.57-1.48,1.93.27c.72.11,1.44.24,2.14.37l2,.37,1.56.27c-.05.2-.09.47-.14.8l-.12,1c0,.34-.06.63-.08.89s0,.4,0,.42v6.71l1.57-.15,1.76-.19,1.73-.22c.56-.07,1.06-.16,1.51-.25L219,17c-.34,0-.76,0-1.26-.06h-4.88Z"/><path class="cls-3" d="M231.79,25c1.83-.18,3.61-.39,5.33-.62s3.35-.53,4.87-.89V7.86a1.87,1.87,0,0,0-.94-1.59,11.31,11.31,0,0,0-3.16-1.19l.68-1.48,1.89.27c.71.11,1.42.24,2.13.37l2,.37,1.59.27a4.86,4.86,0,0,0-.16.8c-.05.34-.09.67-.14,1s-.08.63-.1.89,0,.4,0,.42V18.13L247.4,18l1.77-.19,1.69-.2c.55-.06,1-.14,1.46-.23L252,20.51l-1.24-.05-1.59,0h-3.37v6c0,.7,0,1.5-.05,2.4s-.08,1.82-.14,2.74-.11,1.79-.16,2.61-.12,1.49-.19,2l-3,.4c0-.35-.08-.84-.12-1.45s-.07-1.28-.1-2-.06-1.44-.07-2.18,0-1.43,0-2.08V25.31c-1.28.27-2.57.52-3.89.77s-2.62.47-3.89.69-2.5.39-3.68.55-2.24.28-3.2.37l-1.06.1-1.48.15-1.57.19c-.53.06-1,.13-1.36.2L220,25l1.33.15c.54.06,1.1.1,1.67.13l1.61.09a10.33,10.33,0,0,0,1.13,0l1.16-.07a10.46,10.46,0,0,1,1.12,0V19.27a3.93,3.93,0,0,0-.07-.84,1.11,1.11,0,0,0-.32-.59,2,2,0,0,0-.77-.43,14.12,14.12,0,0,0-1.46-.39l.61-1.54,1.35.15,1.65.18,1.68.22c.54.08,1,.17,1.45.25,0,.21-.08.45-.11.74s-.07.58-.1.87-.07.56-.09.81,0,.4,0,.47Zm2.15-2.89c.2-.91.39-1.89.57-2.93s.33-2.07.47-3.1.24-2,.31-3,.12-1.76.12-2.48H233.6l-1.68,0c-.56,0-1.12,0-1.69.07s-1.19.08-1.86.15-1.44.15-2.38.27-1.82.24-2.62.4l-1.75-3.12c.45.07.93.13,1.45.18s1,.11,1.56.15,1,.08,1.49.1.88,0,1.24,0c1.72,0,3.58-.07,5.57-.2a52.54,52.54,0,0,0,5.9-.74l1.08,1-.51,3c-.18,1.06-.39,2.15-.63,3.25s-.53,2.22-.84,3.33a28.18,28.18,0,0,1-1.11,3.17Z"/><path class="cls-4" d="M89.3,45a4,4,0,0,1,1.08.15,2.68,2.68,0,0,1,1,.54l-.58.83a2,2,0,0,0-.73-.42A2.69,2.69,0,0,0,89.3,46a2.63,2.63,0,0,0-.65.08,1.27,1.27,0,0,0-.52.29,1.54,1.54,0,0,0-.34.58,3.21,3.21,0,0,0-.12,1v.63a2.32,2.32,0,0,0,.13.84,1.38,1.38,0,0,0,.35.56,1.22,1.22,0,0,0,.54.31,2.38,2.38,0,0,0,.68.09,3,3,0,0,0,.54,0,2.64,2.64,0,0,0,.46-.13V48.65H89.09v-.91h2.36v3A2.48,2.48,0,0,1,91,51a4.72,4.72,0,0,1-.53.18,5.4,5.4,0,0,1-.58.1,3.6,3.6,0,0,1-.56,0,4.09,4.09,0,0,1-1.08-.14,2.34,2.34,0,0,1-.87-.46,2.15,2.15,0,0,1-.58-.8,3,3,0,0,1-.21-1.17v-1.1a3.09,3.09,0,0,1,.21-1.19,2.18,2.18,0,0,1,.56-.82,2.2,2.2,0,0,1,.86-.48A3.83,3.83,0,0,1,89.3,45Z"/><path class="cls-4" d="M94,45.06h1.09v6.13H94Z"/><path class="cls-4" d="M99.14,46.94a3.94,3.94,0,0,1-.14-.38c0-.14-.1-.33-.17-.55v5.18h-1V45.06h1.54l1.51,3.81,1.44-3.81h1.56v6.13h-1V46a4.72,4.72,0,0,1-.16.58l-.12.35-1.29,3.23h-.86Z"/><path class="cls-4" d="M106.61,45.06h2.31a3.3,3.3,0,0,1,1,.13,1.79,1.79,0,0,1,.65.37,1.37,1.37,0,0,1,.37.55,1.82,1.82,0,0,1,.13.7V47a2.08,2.08,0,0,1-.13.71,1.79,1.79,0,0,1-.39.59,1.86,1.86,0,0,1-.66.39,2.53,2.53,0,0,1-.92.15H107.7v2.36h-1.09Zm1.09.91v2h1.07a1.51,1.51,0,0,0,.85-.21.82.82,0,0,0,.3-.74v-.15a.88.88,0,0,0-.08-.42.75.75,0,0,0-.21-.26.86.86,0,0,0-.34-.13,1.87,1.87,0,0,0-.42,0Z"/><path class="cls-4" d="M115.74,45a3.21,3.21,0,0,1,1,.15,2.33,2.33,0,0,1,.83.46,2.18,2.18,0,0,1,.56.82,3.17,3.17,0,0,1,.21,1.22v1a3.23,3.23,0,0,1-.21,1.23,2.1,2.1,0,0,1-.56.82,2.21,2.21,0,0,1-.82.46,3.64,3.64,0,0,1-2,0,2.12,2.12,0,0,1-1.38-1.28,3.23,3.23,0,0,1-.21-1.23v-1a3.17,3.17,0,0,1,.21-1.22,2.43,2.43,0,0,1,.56-.82,2.33,2.33,0,0,1,.83-.46A3.3,3.3,0,0,1,115.74,45Zm0,5.32a2.21,2.21,0,0,0,.59-.08,1.1,1.1,0,0,0,.47-.29,1.33,1.33,0,0,0,.32-.55,2.75,2.75,0,0,0,.12-.88v-.74a2.68,2.68,0,0,0-.12-.87,1.33,1.33,0,0,0-.32-.55,1.1,1.1,0,0,0-.47-.29,2.18,2.18,0,0,0-1.17,0,1.1,1.1,0,0,0-.47.29,1.23,1.23,0,0,0-.32.55,2.68,2.68,0,0,0-.12.87v.74a2.75,2.75,0,0,0,.12.88,1.23,1.23,0,0,0,.32.55,1.1,1.1,0,0,0,.47.29A2.2,2.2,0,0,0,115.74,50.29Z"/><path class="cls-4" d="M124.33,45.06h2.38c1.29,0,1.93.5,1.93,1.5v.18a1.74,1.74,0,0,1,0,.39,1,1,0,0,1-.16.36,1.38,1.38,0,0,1-.3.29,1.77,1.77,0,0,1-.46.19,1.52,1.52,0,0,1,.9.42,1.29,1.29,0,0,1,.35,1v.21a1.52,1.52,0,0,1-.48,1.19,2.17,2.17,0,0,1-1.47.43h-2.64Zm1.08.9v1.6h.8l.56,0a1.19,1.19,0,0,0,.42-.09.53.53,0,0,0,.25-.24.88.88,0,0,0,.09-.44v-.15a.53.53,0,0,0-.3-.53,2.86,2.86,0,0,0-1-.13Zm0,4.33h1a5.72,5.72,0,0,0,.62,0,1.22,1.22,0,0,0,.44-.12.63.63,0,0,0,.26-.25.93.93,0,0,0,.09-.44v-.18a.82.82,0,0,0-.09-.4.57.57,0,0,0-.26-.25,1.5,1.5,0,0,0-.49-.14,7.32,7.32,0,0,0-.74,0h-.82Z"/><path class="cls-4" d="M133.64,48.73h-1.25v2.46h-1.08V45.06h2.31a2.49,2.49,0,0,1,.85.13,1.7,1.7,0,0,1,.62.35,1.36,1.36,0,0,1,.38.53,1.63,1.63,0,0,1,.13.67v.32a1.71,1.71,0,0,1-.23.87,1.54,1.54,0,0,1-.72.6c.21.44.41.89.6,1.33l.6,1.33h-1.18ZM132.39,46v1.85h1a1.3,1.3,0,0,0,.87-.22.73.73,0,0,0,.26-.57v-.25a.75.75,0,0,0-.24-.58,1.16,1.16,0,0,0-.8-.23Z"/><path class="cls-4" d="M138.27,45.06h1.09v6.13h-1.09Z"/><path class="cls-4" d="M144.59,45a3.91,3.91,0,0,1,1.08.15,2.68,2.68,0,0,1,1,.54l-.58.83a2,2,0,0,0-.73-.42,2.64,2.64,0,0,0-.78-.12,2.69,2.69,0,0,0-.65.08,1.27,1.27,0,0,0-.52.29,1.41,1.41,0,0,0-.33.58,2.89,2.89,0,0,0-.13,1v.63a2.32,2.32,0,0,0,.13.84,1.38,1.38,0,0,0,.35.56,1.22,1.22,0,0,0,.54.31,2.38,2.38,0,0,0,.68.09,3,3,0,0,0,.54,0,2.64,2.64,0,0,0,.46-.13V48.65h-1.28v-.91h2.36v3a2.48,2.48,0,0,1-.46.24,4.12,4.12,0,0,1-.53.18,5.4,5.4,0,0,1-.58.1,3.6,3.6,0,0,1-.56,0,4.09,4.09,0,0,1-1.08-.14,2.42,2.42,0,0,1-.87-.46,2.15,2.15,0,0,1-.58-.8,3,3,0,0,1-.21-1.17v-1.1a3.09,3.09,0,0,1,.21-1.19,2.14,2.14,0,0,1,1.43-1.3A3.71,3.71,0,0,1,144.59,45Z"/><path class="cls-4" d="M152.91,48.44h-2.54v2.75h-1.09V45.06h1.09v2.48h2.54V45.06H154v6.13h-1.09Z"/><path class="cls-4" d="M160.81,45.06V46H159v5.21h-1.09V46h-1.8v-.92Z"/><path class="cls-4" d="M170.37,45.06V46h-2.86v1.65h2.68v.88h-2.68v1.8h2.92v.9h-4V45.06Z"/><path class="cls-4" d="M175.56,48.77v2.42h-1.09V48.77l-2.1-3.71h1.22l1.45,2.7,1.43-2.7h1.19Z"/><path class="cls-4" d="M183.76,45.06V46H180.9v1.65h2.68v.88H180.9v1.8h2.92v.9h-4V45.06Z"/><path class="cls-4" d="M192.16,45a3.94,3.94,0,0,1,1.14.15,2.91,2.91,0,0,1,1,.53l-.59.83a1.84,1.84,0,0,0-.74-.41,2.78,2.78,0,0,0-.78-.1,2,2,0,0,0-.54.08,1,1,0,0,0-.46.29,1.55,1.55,0,0,0-.33.58,2.76,2.76,0,0,0-.13.94v.63a2.49,2.49,0,0,0,.12.82,1.4,1.4,0,0,0,.32.55,1.11,1.11,0,0,0,.46.31,1.49,1.49,0,0,0,.55.1,3,3,0,0,0,.87-.13,1.85,1.85,0,0,0,.81-.51l.58.83a2,2,0,0,1-.57.43,3.06,3.06,0,0,1-.6.25,2.45,2.45,0,0,1-.59.11l-.54,0a3.43,3.43,0,0,1-1-.14,2.2,2.2,0,0,1-.8-.46,2.3,2.3,0,0,1-.54-.8,3,3,0,0,1-.21-1.17v-1.1a3.29,3.29,0,0,1,.2-1.19,2.41,2.41,0,0,1,.55-.82,2.08,2.08,0,0,1,.81-.48A3.22,3.22,0,0,1,192.16,45Z"/><path class="cls-4" d="M197.86,45.06v5.21h2.8v.92h-3.89V45.06Z"/><path class="cls-4" d="M202.87,45.06H204v6.13h-1.09Z"/><path class="cls-4" d="M206.7,45.06H208L210,48.77c.06.12.13.26.2.42a3,3,0,0,1,.19.55V45.06h1v6.13H210.2l-2.1-3.72a4.71,4.71,0,0,1-.22-.45,2,2,0,0,1-.16-.5v4.67h-1Z"/><path class="cls-4" d="M214.18,45.06h1.09v6.13h-1.09Z"/><path class="cls-4" d="M220.34,45a3.94,3.94,0,0,1,1.14.15,2.91,2.91,0,0,1,1,.53l-.59.83a1.84,1.84,0,0,0-.74-.41,2.78,2.78,0,0,0-.78-.1,2,2,0,0,0-.54.08,1,1,0,0,0-.46.29,1.55,1.55,0,0,0-.33.58,2.76,2.76,0,0,0-.13.94v.63a2.49,2.49,0,0,0,.12.82,1.4,1.4,0,0,0,.32.55,1.11,1.11,0,0,0,.46.31,1.49,1.49,0,0,0,.55.1,3,3,0,0,0,.87-.13,1.85,1.85,0,0,0,.81-.51l.58.83a2,2,0,0,1-.57.43,3.06,3.06,0,0,1-.6.25,2.45,2.45,0,0,1-.59.11l-.54,0a3.43,3.43,0,0,1-1-.14,2.2,2.2,0,0,1-.8-.46,2.3,2.3,0,0,1-.54-.8,3,3,0,0,1-.21-1.17v-1.1a3.29,3.29,0,0,1,.2-1.19,2.41,2.41,0,0,1,.55-.82,2.08,2.08,0,0,1,.81-.48A3.22,3.22,0,0,1,220.34,45Z"/></g></g></svg>